# Blender v2.93.5 OBJ File: ''
# www.blender.org
mtllib abstr_0.mtl
o experimental_obj_1
v -0.008336 0.042749 0.008767
v -0.016672 0.039348 0.007534
v -0.016322 0.031399 0.015068
v -0.008161 0.035700 0.017534
v -0.009080 0.027850 0.018767
v -0.018161 0.025700 0.017534
v -0.018200 0.031824 -0.007191
v -0.016400 0.043648 -0.004382
v -0.015779 0.040000 -0.008764
v -0.017889 0.030000 -0.014382
v 0.010000 0.000000 0.010000
v 0.020000 0.000000 0.010000
v 0.020000 0.000000 0.020000
v 0.010000 0.000000 0.020000
v 0.015237 0.033837 0.007016
v 0.010474 0.047673 0.004033
v 0.012390 0.043436 0.011899
v 0.013546 0.031718 0.014033
v 0.010000 0.030000 -0.018304
v 0.010000 0.040000 -0.016608
v 0.020000 0.040000 -0.013217
v 0.020000 0.030000 -0.016608
v 0.010000 0.010000 -0.020000
v 0.010000 0.020000 -0.020000
v 0.020000 0.020000 -0.020000
v 0.020000 0.010000 -0.020000
v -0.010000 0.010000 -0.023461
v -0.010000 0.020000 -0.024292
v 0.000000 0.020000 -0.027788
v 0.000000 0.010000 -0.025265
v -0.008945 0.030000 -0.017191
v -0.007889 0.040000 -0.014382
v 0.000000 0.040000 -0.016966
v 0.000000 0.030000 -0.020000
v 0.020000 0.010000 0.010000
v 0.020000 0.020000 0.010000
v 0.020000 0.020000 0.017649
v 0.020000 0.010000 0.020000
v 0.020000 0.010000 -0.010000
v 0.020000 0.020000 -0.010000
v 0.020000 0.020000 0.000000
v 0.020000 0.010000 0.000000
v 0.017140 0.032978 -0.008304
v 0.014279 0.045338 -0.006608
v 0.008559 0.051911 0.000000
v 0.014279 0.035956 0.000000
v -0.010000 0.000000 0.010000
v 0.000000 0.000000 0.010000
v 0.000000 0.000000 0.020000
v -0.010000 0.000000 0.020000
v -0.010000 0.000000 -0.010000
v 0.000000 0.000000 -0.010000
v 0.000000 0.000000 0.000000
v -0.010000 0.000000 0.000000
v 0.010000 0.000000 -0.010000
v 0.020000 0.000000 -0.010000
v 0.020000 0.000000 0.000000
v 0.010000 0.000000 0.000000
v -0.015249 0.010000 -0.010000
v -0.017012 0.020000 -0.010000
v -0.020000 0.020000 -0.020000
v -0.020000 0.010000 -0.020000
v -0.020000 0.010000 0.010000
v -0.020000 0.020000 0.010000
v -0.015420 0.020000 0.000000
v -0.015267 0.010000 0.000000
v -0.018336 0.029674 0.008767
v -0.017022 0.047297 0.000000
v -0.018511 0.033648 0.000000
v -0.010000 0.010000 0.022349
v -0.010000 0.020000 0.022349
v -0.020000 0.020000 0.020000
v -0.020000 0.010000 0.020000
v 0.010000 0.010000 0.020000
v 0.010000 0.020000 0.020000
v 0.000000 0.020000 0.024607
v 0.000000 0.010000 0.024607
v 0.008098 0.030859 0.019477
v 0.006195 0.041718 0.014033
v 0.000000 0.040000 0.023058
v 0.000000 0.030000 0.021893
v 0.005237 0.050392 0.007016
v 0.000000 0.050158 0.010000
v 0.007140 0.046053 -0.008304
v 0.000000 0.046150 -0.010000
v 0.000000 0.052301 0.000000
v 0.004279 0.052106 0.000000
v -0.008200 0.044899 -0.007191
v -0.008511 0.049799 0.000000
v -0.020000 0.000000 0.020000
v -0.020000 0.000000 0.010000
v -0.020000 0.000000 0.000000
v -0.020000 0.000000 -0.010000
v -0.020000 0.000000 -0.020000
v 0.000000 0.000000 -0.020000
v 0.010000 0.000000 -0.020000
v 0.020000 0.000000 -0.020000
v -0.010000 0.000000 -0.020000
vn -0.3598 0.6334 0.6851
vn -0.5139 0.6635 0.5438
vn -0.3729 0.1865 0.9089
vn -0.2235 0.4469 0.8662
vn -0.9262 0.2146 -0.3100
vn -0.9587 0.2631 -0.1082
vn 0.0000 -1.0000 0.0000
vn 0.9478 0.3128 -0.0623
vn 0.9513 0.1435 0.2727
vn 0.3171 0.1586 -0.9350
vn 0.1586 0.3171 -0.9350
vn 0.0000 0.0000 -1.0000
vn -0.3290 -0.0782 -0.9411
vn -0.1723 -0.2410 -0.9551
vn -0.2981 0.2872 -0.9103
vn -0.2878 0.2780 -0.9164
vn 1.0000 0.0000 0.0000
vn 0.8010 0.1045 0.5895
vn 0.9225 0.3307 0.1991
vn -0.9448 -0.1666 0.2823
vn -0.9032 0.0000 0.4291
vn -0.9092 0.0000 -0.4164
vn -0.9038 -0.0138 -0.4278
vn -0.9485 0.1950 0.2498
vn -0.9917 0.1082 0.0689
vn -0.2287 0.0000 0.9735
vn 0.4185 0.0000 0.9082
vn 0.7138 0.4098 0.5679
vn 0.2950 -0.1106 0.9491
vn 0.3000 0.7530 0.5857
vn 0.6568 0.5168 0.5492
vn 0.1348 0.8440 -0.5191
vn 0.0370 0.8136 -0.5803
vn -0.3239 0.7040 -0.6320
vn -0.2348 0.7986 -0.5542
vn -0.3058 0.7806 -0.5451
vn -0.2429 0.8263 -0.5082
vn -0.1831 0.8088 -0.5589
vn -0.3228 0.7095 -0.6264
vn -0.4355 0.6605 -0.6116
vn 0.2079 0.8232 -0.5284
vn 0.0329 0.7227 -0.6904
vn 0.1823 0.8234 -0.5374
vn 0.2035 0.8402 -0.5026
vn 0.0237 0.7494 -0.6617
vn 0.1420 0.8226 -0.5507
vn 0.6104 0.5378 0.5815
vn -0.0736 0.8704 0.4869
vn 0.0442 0.9719 0.2314
vn 0.5965 0.6782 0.4292
vn 0.0445 0.9768 0.2093
vn 0.0850 0.9705 0.2255
vn 0.2755 0.0944 0.9567
vn 0.4063 0.2393 0.8818
vn 0.5658 0.5113 0.6469
vn 0.2280 0.0867 0.9698
vn 0.2697 0.1982 0.9423
vn 0.5990 0.4403 0.6689
vn 0.0000 -0.4185 0.9082
vn 0.0000 0.0000 1.0000
vn 0.2231 0.2231 0.9489
vn -0.2229 -0.2229 0.9490
vn -0.2009 -0.4099 0.8897
vn 0.0000 -0.2287 0.9735
vn -0.2203 0.0000 0.9754
vn -0.9782 0.1812 0.1017
vn -0.8905 -0.2017 -0.4079
vn -0.9081 0.3743 0.1878
vn -0.9855 0.1695 0.0000
vn -0.7246 0.4570 0.5159
vn -0.9039 0.0000 -0.4278
vn -0.9039 0.4278 0.0000
vn -1.0000 0.0000 0.0000
vn -0.8300 0.3944 0.3944
vn -0.9039 0.4278 -0.0016
vn -0.9032 0.4291 0.0000
vn -0.9875 -0.0151 0.1572
vn -0.9848 -0.1736 -0.0018
vn 0.9486 0.1745 0.2641
vn 0.9413 0.3375 0.0000
vn 0.9239 -0.1229 0.3623
vn 0.9766 0.2152 0.0000
vn 0.6219 -0.2515 0.7416
vn 0.9478 0.1836 0.2606
vn -0.2444 0.5784 -0.7783
vn -0.2659 0.5923 -0.7606
vn -0.2570 0.5140 -0.8184
vn -0.3240 0.5702 -0.7549
vn -0.5017 0.5017 -0.7046
vn -0.2870 0.2870 -0.9139
vn -0.1681 -0.3224 -0.9316
vn 0.0000 -0.4659 -0.8849
vn -0.3270 0.0000 -0.9450
vn 0.0000 -0.3270 -0.9450
vn -0.3944 0.0000 -0.9189
vn -0.3260 -0.0783 -0.9421
vn 0.4223 -0.4223 -0.8021
vn 0.6026 -0.1952 -0.7738
vn 0.4659 0.0000 -0.8849
vn 0.1649 0.1649 -0.9724
vn 0.0000 0.3212 -0.9470
vn 0.1326 0.6090 -0.7820
vn 0.6090 0.1326 -0.7820
vn 0.0342 0.2902 -0.9564
vn 0.8718 0.3695 0.3218
vn 0.8759 0.4825 0.0000
vn 0.9410 0.3374 -0.0266
vn 0.9456 0.3255 0.0000
vn 0.9373 0.3361 -0.0922
vn 0.9472 0.3189 -0.0330
vn -0.9952 -0.0956 -0.0188
vn -0.9573 0.0413 0.2861
vn -0.9752 -0.2209 0.0139
vn -0.9785 -0.1353 0.1558
vn -0.9685 0.1057 -0.2253
vn -0.9818 0.1697 -0.0855
vn -0.2201 0.4262 0.8774
vn -0.2050 0.4436 0.8725
vn -0.3668 0.2437 0.8978
vn -0.1993 0.4261 0.8825
vn -0.5217 -0.0987 0.8474
vn -0.3589 0.1857 0.9147
vn -0.6150 0.6085 0.5016
vn -0.6394 0.6069 0.4721
vn -0.2227 0.7576 0.6136
vn -0.6690 0.7268 0.1557
vn -0.1969 0.6699 0.7159
vn -0.3792 0.7174 0.5844
usemtl None
s off
f 1//1 2//1 3//1
f 1//2 3//2 4//2
f 5//3 4//3 3//3
f 5//4 3//4 6//4
f 7//5 8//5 9//5
f 7//6 9//6 10//6
f 11//7 12//7 13//7
f 11//7 13//7 14//7
f 15//8 16//8 17//8
f 15//9 17//9 18//9
f 19//10 20//10 21//10
f 19//11 21//11 22//11
f 23//12 24//12 25//12
f 23//12 25//12 26//12
f 27//13 28//13 29//13
f 27//14 29//14 30//14
f 31//15 32//15 33//15
f 31//16 33//16 34//16
f 35//17 36//17 37//17
f 35//17 37//17 38//17
f 39//17 40//17 41//17
f 39//17 41//17 42//17
f 43//18 44//18 45//18
f 43//19 45//19 46//19
f 47//7 48//7 49//7
f 47//7 49//7 50//7
f 51//7 52//7 53//7
f 51//7 53//7 54//7
f 55//7 56//7 57//7
f 55//7 57//7 58//7
f 59//20 60//20 61//20
f 59//21 61//21 62//21
f 63//22 64//22 65//22
f 63//23 65//23 66//23
f 67//24 2//24 68//24
f 67//25 68//25 69//25
f 70//26 71//26 72//26
f 70//26 72//26 73//26
f 74//27 75//27 76//27
f 74//27 76//27 77//27
f 78//28 79//28 80//28
f 78//29 80//29 81//29
f 82//30 83//30 80//30
f 82//31 80//31 79//31
f 84//32 85//32 86//32
f 84//33 86//33 87//33
f 88//34 8//34 68//34
f 88//35 68//35 89//35
f 85//36 88//36 89//36
f 85//37 89//37 86//37
f 33//38 32//38 88//38
f 33//39 88//39 85//39
f 32//40 9//40 8//40
f 32//36 8//36 88//36
f 44//41 84//41 87//41
f 44//42 87//42 45//42
f 21//43 20//43 84//43
f 21//44 84//44 44//44
f 20//45 33//45 85//45
f 20//46 85//46 84//46
f 16//47 82//47 79//47
f 16//48 79//48 17//48
f 45//49 87//49 82//49
f 45//50 82//50 16//50
f 87//51 86//51 83//51
f 87//52 83//52 82//52
f 75//53 78//53 81//53
f 75//54 81//54 76//54
f 37//55 18//55 78//55
f 37//56 78//56 75//56
f 18//57 17//57 79//57
f 18//58 79//58 78//58
f 14//27 74//27 77//27
f 14//59 77//59 49//59
f 13//60 38//60 74//60
f 13//60 74//60 14//60
f 38//61 37//61 75//61
f 38//60 75//60 74//60
f 50//62 70//62 73//62
f 50//60 73//60 90//60
f 49//63 77//63 70//63
f 49//64 70//64 50//64
f 77//65 76//65 71//65
f 77//65 71//65 70//65
f 64//66 67//66 69//66
f 64//67 69//67 65//67
f 72//68 6//68 67//68
f 72//69 67//69 64//69
f 6//70 3//70 2//70
f 6//66 2//66 67//66
f 91//71 63//71 66//71
f 91//72 66//72 92//72
f 90//73 73//73 63//73
f 90//73 63//73 91//73
f 73//73 72//73 64//73
f 73//73 64//73 63//73
f 93//74 59//74 62//74
f 93//73 62//73 94//73
f 92//75 66//75 59//75
f 92//76 59//76 93//76
f 66//77 65//77 60//77
f 66//78 60//78 59//78
f 52//7 55//7 58//7
f 52//7 58//7 53//7
f 95//7 96//7 55//7
f 95//7 55//7 52//7
f 96//7 97//7 56//7
f 96//7 56//7 55//7
f 93//7 51//7 54//7
f 93//7 54//7 92//7
f 94//7 98//7 51//7
f 94//7 51//7 93//7
f 98//7 95//7 52//7
f 98//7 52//7 51//7
f 91//7 47//7 50//7
f 91//7 50//7 90//7
f 92//7 54//7 47//7
f 92//7 47//7 91//7
f 54//7 53//7 48//7
f 54//7 48//7 47//7
f 40//79 43//79 46//79
f 40//80 46//80 41//80
f 25//81 22//81 43//81
f 25//82 43//82 40//82
f 22//83 21//83 44//83
f 22//84 44//84 43//84
f 56//17 39//17 42//17
f 56//17 42//17 57//17
f 97//17 26//17 39//17
f 97//17 39//17 56//17
f 26//17 25//17 40//17
f 26//17 40//17 39//17
f 12//17 35//17 38//17
f 12//17 38//17 13//17
f 57//17 42//17 35//17
f 57//17 35//17 12//17
f 42//17 41//17 36//17
f 42//17 36//17 35//17
f 28//85 31//85 34//85
f 28//86 34//86 29//86
f 61//87 10//87 31//87
f 61//88 31//88 28//88
f 10//89 9//89 32//89
f 10//90 32//90 31//90
f 98//91 27//91 30//91
f 98//92 30//92 95//92
f 94//93 62//93 27//93
f 94//94 27//94 98//94
f 62//95 61//95 28//95
f 62//96 28//96 27//96
f 96//12 23//12 26//12
f 96//12 26//12 97//12
f 95//97 30//97 23//97
f 95//12 23//12 96//12
f 30//98 29//98 24//98
f 30//99 24//99 23//99
f 24//100 19//100 22//100
f 24//101 22//101 25//101
f 29//102 34//102 19//102
f 29//103 19//103 24//103
f 34//104 33//104 20//104
f 34//100 20//100 19//100
f 36//105 15//105 18//105
f 36//106 18//106 37//106
f 41//107 46//107 15//107
f 41//108 15//108 36//108
f 46//109 45//109 16//109
f 46//110 16//110 15//110
f 48//7 11//7 14//7
f 48//7 14//7 49//7
f 53//7 58//7 11//7
f 53//7 11//7 48//7
f 58//7 57//7 12//7
f 58//7 12//7 11//7
f 60//111 7//111 10//111
f 60//112 10//112 61//112
f 65//113 69//113 7//113
f 65//114 7//114 60//114
f 69//115 68//115 8//115
f 69//116 8//116 7//116
f 71//117 5//117 6//117
f 71//118 6//118 72//118
f 76//119 81//119 5//119
f 76//120 5//120 71//120
f 81//121 80//121 4//121
f 81//122 4//122 5//122
f 83//123 1//123 4//123
f 83//124 4//124 80//124
f 86//125 89//125 1//125
f 86//126 1//126 83//126
f 89//127 68//127 2//127
f 89//128 2//128 1//128
